<svg width="48" height="48" viewBox="0 0 48 48" fill="none" xmlns="http://www.w3.org/2000/svg">
<rect width="48" height="48" rx="24" fill="#4C5646"/>
<path d="M24.4728 14.496C24.1708 14.3666 23.8291 14.3666 23.5272 14.496L15.1272 18.096C14.6847 18.2845 14.3975 18.719 14.3975 19.2C14.3975 19.681 14.6847 20.1155 15.1272 20.304L18.3 21.6612C18.4177 21.528 18.5637 21.4226 18.7272 21.3528L23.5272 19.296C23.9225 19.1198 24.382 19.1701 24.7298 19.4277C25.0776 19.6853 25.2598 20.1102 25.2066 20.5397C25.1533 20.9692 24.8729 21.3367 24.4728 21.5016L21.2004 22.9056L23.5284 23.9028C23.8299 24.0319 24.1712 24.0319 24.4728 23.9028L32.8728 20.3028C33.3138 20.1136 33.5997 19.6799 33.5997 19.2C33.5997 18.7201 33.3138 18.2864 32.8728 18.0972L24.4728 14.4972V14.496M15.972 23.2764L18 24.144V29.0664C17.5845 28.9719 17.1637 28.9022 16.74 28.8576C16.1765 28.7984 15.7312 28.3531 15.672 27.7896C15.5141 26.2787 15.6156 24.7519 15.972 23.2752V23.2764M23.16 31.8876C22.3488 31.0917 21.4174 30.4283 20.4 29.922V25.1736L22.5816 26.1096C23.4873 26.4979 24.5126 26.4979 25.4184 26.1096L32.028 23.2764C32.3864 24.7528 32.4879 26.2799 32.328 27.7908C32.2687 28.3543 31.8235 28.7996 31.26 28.8588C28.839 29.1132 26.5758 30.1809 24.84 31.8876C24.3733 32.345 23.6266 32.345 23.16 31.8876V31.8876M19.2 33.6C19.8627 33.6 20.4 33.0627 20.4 32.4V29.922C19.5688 30.1104 18.7632 30.3972 18 30.7764V32.4C18 33.0627 18.5372 33.6 19.2 33.6V33.6" fill="white"/>
</svg>
