<svg width="48" height="48" viewBox="0 0 48 48" fill="none" xmlns="http://www.w3.org/2000/svg">
<rect width="48" height="48" rx="24" fill="#4C5646"/>
<path fill-rule="evenodd" clip-rule="evenodd" d="M24.0004 33.5999C29.2988 33.5999 33.6004 29.2983 33.6004 23.9999C33.6004 18.7015 29.2988 14.3999 24.0004 14.3999C18.702 14.3999 14.4004 18.7015 14.4004 23.9999C14.4004 29.2983 18.702 33.5999 24.0004 33.5999V33.5999M23.4664 20.6015C23.0982 20.3558 22.6246 20.3328 22.2343 20.5417C21.844 20.7505 21.6003 21.1572 21.6004 21.5999V26.3999C21.6003 26.8426 21.844 27.2493 22.2343 27.4582C22.6246 27.667 23.0982 27.644 23.4664 27.3983L27.0664 24.9983C27.4002 24.7757 27.6007 24.4011 27.6007 23.9999C27.6007 23.5987 27.4002 23.2241 27.0664 23.0015L23.4664 20.6015V20.6015" fill="white"/>
</svg>
